<svg xmlns="http://www.w3.org/2000/svg" viewBox="0 0 841.9 595.3">

<g id="g376" transform="matrix(5.3562994,0,0,5.3562994,5.0837534,-2.8799194)">
	<path id="path348" d="M48.809,24.932c0-0.172-0.205-0.38-0.422-0.221c-0.55,0.331-1.765,0.944-3.491,1.115l-6.33,0.686
		l-0.997-7.009c1.867-0.233,3.747-0.453,4.936-0.564c1.304-0.123,2.161,0.049,2.647,0.184c0.345,0.123,0.512-0.086,0.486-0.306
		l-0.499-5.735c-0.038-0.319-0.269-0.319-0.499-0.184c-0.422,0.245-1.1,0.441-2.736,0.601c-1.56,0.147-3.363,0.343-5.115,0.564
		l-0.844-5.931c0.755-0.11,3.286-0.539,6.368-0.845c2.251-0.233,3.568,0.024,4.028,0.159c0.281,0.098,0.396-0.086,0.396-0.245
		l-0.32-5.453c-6.457,0.429-12.084,1.225-17.953,2.23c-0.333,0.061-0.396,0.282-0.256,0.515C28.784,5.4,29.002,6.65,29.245,8.28
		l3.069,19.986c0.294,1.605,0.448,2.855,0.294,3.946c-0.064,0.331,0.205,0.429,0.46,0.38c5.153-0.858,10.894-1.544,16.124-1.814
		L48.809,24.932z"/>
	<path id="path350" d="M52.044,30.324c0.499-1.213,0.499-2.708,0.499-4.166L52.517,5.731c-0.026-1.274-0.141-2.573-0.55-3.811
		c-0.038-0.11-0.077-0.355,0.268-0.368c1.867-0.061,4.974-0.11,7.212-0.061c0.358,0,0.32,0.294,0.281,0.404
		c-0.473,1.495-0.435,2.316-0.499,3.639l-0.026,20.598c0,1.274,0.064,3.161,0.448,4.13c0.064,0.171,0.051,0.343-0.192,0.343
		c-2.596-0.049-4.718-0.024-7.225,0.074c-0.217,0-0.281-0.159-0.179-0.356H52.044z"/>
	<path id="path352" d="M84.037,29.576c-0.23,1.14-0.294,2.255-0.115,3.456c0.038,0.172-0.051,0.441-0.396,0.368
		c-2.289-0.466-4.054-0.797-5.665-1.078c-0.946-2.831-5.844-18.062-5.908-18.221L70.38,27.101c-0.128,1.054-0.32,2.671,0.064,3.897
		c0.064,0.269-0.077,0.331-0.281,0.306c-2.072-0.233-4.667-0.453-6.432-0.551c-0.332-0.025-0.217-0.331-0.179-0.404
		c0.575-1.115,0.831-2.708,0.959-3.75l2.468-20.574c0.115-1.029,0.332-2.487,0-3.774c-0.077-0.257,0.077-0.453,0.396-0.429
		c2.314,0.184,5.076,0.466,6.803,0.686l5.869,18l2.34-12.388c0.46-1.899,0.537-2.929,0.345-3.982
		c-0.038-0.196,0.051-0.355,0.358-0.306c1.79,0.306,4.514,0.845,6.432,1.25c0.205,0.037,0.243,0.233,0.077,0.392
		c-0.767,1.029-0.933,1.985-1.342,3.652L84.011,29.54L84.037,29.576z"/>
	<path id="path354" d="M105.532,33.057c-1.266,0.086-3.005-0.196-4.207-0.6c-2.711-0.846-3.644-1.127-5.319-1.63l15.996-13.687
		l-0.102-5.293c-7.046-2.622-11.636-3.958-16.38-5.269l-1.713,5.404c-0.064,0.196,0.051,0.392,0.358,0.38
		c1.24-0.049,3.235,0.429,4.258,0.723c1.215,0.343,5.767,1.752,6.714,2.095L88.142,29.846l0.09,4.644
		c4.897,1.189,10.204,2.757,14.795,4.448l2.839-5.379c0.115-0.22,0.063-0.527-0.346-0.502H105.532z"/>
	<path id="path356" d="M29.474,32.775c-0.742-1.03-1.266-2.377-1.598-3.799L22.032,9.554c-0.307-1.164-0.537-2.524-0.409-3.786
		c0.038-0.172-0.166-0.294-0.307-0.257c-1.662,0.38-4.821,1.189-6.892,1.752c-0.217,0.061-0.345,0.233-0.205,0.466
		c0.55,0.858,1.087,2.144,1.432,3.566l1.969,6.335c-1.867,0.453-5.345,1.434-7.263,1.997l-2.097-6.102
		c-0.55-1.446-0.742-2.438-0.767-3.688c0,0,0.038-0.465-0.384-0.343c-1.995,0.637-4.833,1.691-6.918,2.451
		c-0.256,0.098-0.268,0.306-0.077,0.515c0.882,1.042,1.419,2.181,1.854,3.443l6.521,18.564c0.486,1.262,0.908,2.475,0.869,3.848
		c0,0.123,0.051,0.404,0.371,0.294c1.918-0.662,4.68-1.593,6.752-2.206c0.192-0.061,0.256-0.27,0.09-0.429
		c-0.729-0.845-1.381-2.267-1.713-3.21l-2.724-7.94c2.928-0.845,4.348-1.238,7.109-1.948l2.34,7.56
		c0.499,1.936,0.601,2.965,0.486,4.068c-0.013,0.147,0.115,0.331,0.345,0.27c1.982-0.515,4.437-1.091,6.879-1.581
		c0.281-0.061,0.243-0.319,0.153-0.429L29.474,32.775z"/>
	<path id="path358" d="M32.593,43.83h2.404v-1.471h-2.404v-0.944h2.57v-1.47H30.88v6.494h4.36v-1.507h-2.647V43.83z"/>
	<path id="path360" d="M43.346,41.404h1.726v5.036h1.65v-5.036h1.713v-1.458h-5.089V41.404z"/>
	<path id="path362" d="M42.451,44.442c0,1.311-1.036,2.095-2.596,2.095c-1.138,0-2.225-0.355-3.018-1.066l0.997-1.176
		c0.639,0.502,1.343,0.772,2.084,0.772c0.473,0,0.729-0.159,0.729-0.441c0-0.282-0.217-0.429-1.087-0.637
		c-1.368-0.306-2.43-0.686-2.43-2.034c0-1.189,0.946-2.059,2.493-2.059c1.087,0,1.944,0.294,2.647,0.858l-0.895,1.25
		c-0.588-0.417-1.228-0.637-1.803-0.637c-0.435,0-0.639,0.196-0.639,0.429c0,0.294,0.217,0.417,1.112,0.625
		C41.53,42.739,42.451,43.242,42.451,44.442L42.451,44.442z"/>
	<path id="path364" d="M51.659,39.945h-1.701v4.326h1.701c0.639,0,1.189-0.208,1.586-0.6c0.409-0.404,0.639-0.98,0.627-1.581
		C53.871,41.024,53.104,39.945,51.659,39.945z M51.25,41.171h0.448c0.601,0,0.882,0.478,0.882,0.931
		c0,0.466-0.269,0.944-0.882,0.944H51.25v-1.863V41.171z"/>
	<path id="path366" d="M50.764,45.79c0-0.404,0.345-0.735,0.767-0.735c0.422,0,0.767,0.331,0.767,0.735s-0.345,0.735-0.767,0.735
		C51.109,46.526,50.764,46.195,50.764,45.79z"/>
	<path id="path368" d="M58.039,39.945v1.348h0.959v5.147h1.637v-6.494H58.039z"/>
	<path id="path370" d="M67.565,43.621c-0.166-0.27-0.422-0.502-0.754-0.662c0.256-0.172,0.435-0.355,0.563-0.552
		c0.154-0.257,0.243-0.527,0.243-0.809c0-0.502-0.192-0.907-0.588-1.238c-0.396-0.331-1.01-0.49-1.841-0.49
		c-0.626,0-1.125,0.135-1.509,0.392c-0.486,0.343-0.729,0.784-0.729,1.323c0,0.331,0.089,0.613,0.256,0.87
		c0.128,0.184,0.32,0.356,0.588,0.502c-0.358,0.147-0.614,0.343-0.78,0.613c-0.166,0.257-0.256,0.588-0.256,0.956
		c0,0.368,0.089,0.735,0.268,1.054c0.179,0.319,0.448,0.551,0.793,0.711c0.345,0.159,0.844,0.245,1.509,0.245
		c0.345,0,0.678-0.037,0.985-0.11s0.563-0.184,0.78-0.331c0.205-0.147,0.384-0.368,0.524-0.65c0.141-0.282,0.217-0.576,0.217-0.907
		s-0.077-0.637-0.243-0.919H67.565z M65.263,41.024c0.384,0,0.703,0.306,0.703,0.674c0,0.368-0.32,0.674-0.703,0.674
		c-0.384,0-0.703-0.306-0.703-0.674C64.56,41.33,64.867,41.024,65.263,41.024z M65.263,45.276c-0.46,0-0.818-0.368-0.818-0.809
		c0-0.441,0.371-0.809,0.818-0.809s0.818,0.368,0.818,0.809C66.082,44.908,65.711,45.276,65.263,45.276z"/>
	<path id="path372" d="M73.96,42.727c-0.435-0.404-1.023-0.6-1.726-0.576l1.419-2.243H71.76l-1.918,2.99
		c-0.281,0.417-0.435,0.944-0.435,1.409c0,1.373,0.985,2.23,2.583,2.23s2.609-0.858,2.609-2.23
		C74.599,43.658,74.382,43.119,73.96,42.727L73.96,42.727z M72.003,45.129c-0.512,0-0.921-0.38-0.921-0.845
		c0-0.466,0.409-0.846,0.921-0.846c0.511,0,0.921,0.38,0.921,0.846C72.924,44.749,72.515,45.129,72.003,45.129z"/>
	<path id="path374" d="M78.524,39.86c-1.611,0-2.608,0.858-2.608,2.242c0,0.649,0.217,1.189,0.627,1.569
		c0.435,0.404,1.048,0.6,1.777,0.576l-1.483,2.193h1.892l1.905-2.904c0.32-0.478,0.46-0.907,0.473-1.446
		c0-1.385-0.997-2.242-2.596-2.242L78.524,39.86z M78.524,42.948c-0.511,0-0.921-0.38-0.921-0.846c0-0.466,0.409-0.845,0.921-0.845
		c0.511,0,0.921,0.38,0.921,0.845C79.444,42.568,79.035,42.948,78.524,42.948z"/>
</g>
</svg>
